this is the only part of alif laila series:
In 6 vcd's 
 

Format                           : CDXA/MPEG-PS
File size                        : 528 MiB
Duration                         : 52mn 37s
Overall bit rate                 : 1 412 Kbps

Video
ID                               : 224 (0xE0)
Format                           : MPEG Video
Format version                   : Version 1
Format settings, BVOP            : Yes
Format settings, Matrix          : Default
Duration                         : 52mn 37s
Bit rate mode                    : Constant
Bit rate                         : 1 151 Kbps
Width                            : 352 pixels
Height                           : 288 pixels
Display aspect ratio             : 4:3
Frame rate                       : 25.000 fps
Standard                         : PAL
Color space                      : YUV
Bit depth                        : 8 bits
Scan type                        : Progressive
Compression mode                 : Lossy
Bits/(Pixel*Frame)               : 0.454
Stream size                      : 433 MiB (82%)

Audio
ID                               : 192 (0xC0)
Format                           : MPEG Audio
Format version                   : Version 1
Format profile                   : Layer 2
Duration                         : 52mn 15s
Bit rate mode                    : Constant
Bit rate                         : 224 Kbps
Channel(s)                       : 2 channels
Sampling rate                    : 44.1 KHz
Compression mode                 : Lossy
Delay relative to video          : -80ms
Stream size                      : 83.7 MiB (16%)
 
http://minus.com/mP5P8QhcM/ 
http://minus.com/mP5P8QhcM/3 
http://minus.com/mP5P8QhcM/7 
http://minus.com/mP5P8QhcM/8f 
http://minus.com/mP5P8QhcM/6

enjoy & seed
